<svg width="100" height="100" viewBox="0 0 100 100" fill="none" xmlns="http://www.w3.org/2000/svg">
<g clip-path="url(#clip0_1_110)">
<path d="M50 -6.62585e-06C77.6142 -6.62585e-06 100 19.0452 100 42.5386C100 58.3509 84.7604 71.5972 74.8078 79.4784C64.8553 87.3597 50.7361 100 50.7361 100C50.7361 100 33.6725 85.5301 25.608 79.4784C17.5435 73.4268 0 59.3555 0 42.5386C0 19.0452 22.3858 -6.62585e-06 50 -6.62585e-06Z" fill="#11999E"/>
<path d="M35.178 17C36.4631 17 37.6056 17.8186 38.0187 19.0356L50.1746 54.8411C50.222 54.9805 50.3528 55.0742 50.5 55.0742C50.6472 55.0742 50.778 54.9805 50.8254 54.8411L62.9813 19.0356C63.3944 17.8186 64.5368 17 65.822 17H78.6292C80.7353 17 82.1858 19.1133 81.4286 21.0785L62.9354 69.0786C62.4893 70.2363 61.3766 71 60.1359 71H40.8641C39.6234 71 38.5107 70.2363 38.0646 69.0786L19.5714 21.0785C18.8142 19.1133 20.2647 17 22.3708 17H35.178Z" fill="white"/>
</g>
<defs>
<clipPath id="clip0_1_110">
<rect width="100" height="100" fill="white"/>
</clipPath>
</defs>
</svg>
