<svg width="646" height="118" viewBox="0 0 646 118" fill="none" xmlns="http://www.w3.org/2000/svg">
<g clip-path="url(#clip0_1_84)">
<path d="M572.063 115.802C570.406 115.802 569.063 114.459 569.063 112.802V4.56189C569.063 2.90503 570.406 1.56189 572.063 1.56189H608.614C615.414 1.56189 621.365 3.10517 626.465 6.19173C631.566 9.27829 635.533 13.7222 638.366 19.5234C641.2 25.3247 642.617 32.2787 642.617 40.3856C642.617 48.5668 641.155 55.4651 638.232 61.0804C635.339 66.6957 631.268 70.9351 626.018 73.7985C620.798 76.662 614.699 78.0937 607.719 78.0937H587.096C585.439 78.0937 584.096 76.7505 584.096 75.0937V56.9962C584.096 55.3394 585.439 53.9962 587.096 53.9962H602.708C605.631 53.9962 608.122 53.55 610.18 52.6575C612.268 51.7278 613.863 50.2589 614.967 48.2508C616.1 46.2426 616.667 43.6209 616.667 40.3856C616.667 37.1131 616.1 34.4542 614.967 32.4089C613.863 30.3264 612.268 28.8017 610.18 27.8348C608.122 26.8308 605.631 26.3287 602.708 26.3287H596.939C595.282 26.3287 593.939 27.6719 593.939 29.3287V112.802C593.939 114.459 592.596 115.802 590.939 115.802H572.063ZM620.789 63.3675C621.981 63.3675 623.061 64.0737 623.538 65.1664L643.824 111.601C644.69 113.583 643.237 115.802 641.075 115.802H620.618C619.416 115.802 618.33 115.084 617.858 113.979L598.048 67.5447C597.203 65.5656 598.655 63.3675 600.807 63.3675H620.789Z" fill="#3C3C3C"/>
<path d="M487.689 115.802C486.032 115.802 484.689 114.459 484.689 112.802V4.56189C484.689 2.90503 486.032 1.56189 487.689 1.56189H547.726C549.383 1.56189 550.726 2.90504 550.726 4.56189V23.5519C550.726 25.2087 549.383 26.5519 547.726 26.5519H512.565C510.908 26.5519 509.565 27.895 509.565 29.5519V43.1868C509.565 44.8437 510.908 46.1868 512.565 46.1868H544.326C545.983 46.1868 547.326 47.53 547.326 49.1868V68.1768C547.326 69.8337 545.983 71.1768 544.326 71.1768H512.565C510.908 71.1768 509.565 72.52 509.565 74.1768V87.8118C509.565 89.4687 510.908 90.8118 512.565 90.8118H547.547C549.204 90.8118 550.547 92.155 550.547 93.8118V112.802C550.547 114.459 549.204 115.802 547.547 115.802H487.689Z" fill="#3C3C3C"/>
<path d="M441.339 39.27C439.906 39.27 438.701 38.2449 438.255 36.8826C437.923 35.8695 437.517 34.9361 437.038 34.0823C436.202 32.5576 435.158 31.2747 433.906 30.2334C432.683 29.155 431.251 28.3554 429.611 27.8348C428 27.277 426.225 26.9981 424.287 26.9981C420.111 26.9981 416.546 28.2439 413.594 30.7354C410.67 33.227 408.433 36.8156 406.882 41.5012C405.361 46.1868 404.601 51.8393 404.601 58.4587C404.601 65.1524 405.331 70.8793 406.793 75.6393C408.254 80.3993 410.432 84.0437 413.325 86.5724C416.218 89.1012 419.812 90.3656 424.108 90.3656C427.896 90.3656 431.042 89.6776 433.548 88.3017C436.083 86.9257 437.977 84.9734 439.23 82.4446C440.084 80.7197 440.597 79.0466 440.836 77.0714C441.036 75.4266 439.657 74.0774 438 74.0774L427.465 74.0774C425.809 74.0774 424.465 72.7343 424.465 71.0774V54.9881C424.465 53.3312 425.809 51.9881 427.465 51.9881H462.09C463.747 51.9881 465.09 53.3312 465.09 54.9881V67.8299C465.09 78.2424 463.315 87.1488 459.766 94.5491C456.246 101.912 451.384 107.565 445.18 111.507C439.006 115.411 431.922 117.364 423.929 117.364C415.01 117.364 407.181 115.002 400.44 110.279C393.699 105.557 388.434 98.8257 384.646 90.0866C380.888 81.3476 379.009 70.9537 379.009 58.905C379.009 49.4593 380.157 41.0922 382.454 33.8034C384.781 26.5147 388.002 20.3601 392.118 15.3398C396.234 10.2823 400.992 6.47062 406.39 3.90468C411.789 1.30156 417.575 0 423.75 0C429.178 0 434.219 0.966876 438.872 2.90063C443.555 4.79718 447.686 7.51187 451.265 11.0447C454.874 14.5403 457.782 18.6867 459.99 23.4839C461.774 27.3624 462.993 31.5447 463.647 36.031C463.9 37.7677 462.511 39.27 460.756 39.27H441.339Z" fill="#3C3C3C"/>
<path d="M304.756 113.508C304.43 114.854 303.225 115.802 301.84 115.802H281.254C279.285 115.802 277.85 113.937 278.353 112.034L307.01 3.7941C307.358 2.47828 308.549 1.56189 309.91 1.56189H339.294C340.655 1.56189 341.846 2.47828 342.194 3.7941L370.851 112.034C371.354 113.937 369.919 115.802 367.95 115.802H347.364C345.979 115.802 344.774 114.854 344.448 113.508L325.044 33.3704C324.995 33.1662 324.812 33.0225 324.602 33.0225C324.392 33.0225 324.209 33.1662 324.16 33.3704L304.756 113.508ZM299.189 73.7306C299.189 72.0737 300.533 70.7306 302.189 70.7306H346.657C348.314 70.7306 349.657 72.0737 349.657 73.7306V90.9355C349.657 92.5924 348.314 93.9356 346.657 93.9356H302.189C300.533 93.9356 299.189 92.5924 299.189 90.9356V73.7306Z" fill="#3C3C3C"/>
<path d="M191.451 5.74605C190.6 3.76616 192.052 1.56189 194.207 1.56189H215.334C216.574 1.56189 217.687 2.32522 218.133 3.48252L235.16 47.6379C235.237 47.8391 235.431 47.9718 235.647 47.9718C235.862 47.9718 236.056 47.8391 236.133 47.6379L253.16 3.48252C253.606 2.32522 254.719 1.56189 255.959 1.56189H277.086C279.241 1.56189 280.693 3.76615 279.842 5.74604L248.239 79.3117C248.078 79.6858 247.995 80.0887 247.995 80.4958V112.802C247.995 114.459 246.652 115.802 244.995 115.802H226.298C224.641 115.802 223.298 114.459 223.298 112.802V80.4958C223.298 80.0887 223.215 79.6858 223.055 79.3117L191.451 5.74605Z" fill="#3C3C3C"/>
<path d="M25.7164 1.56189C27.1107 1.56189 28.3212 2.5225 28.638 3.88032L46.8068 81.7614C46.8544 81.9655 47.0364 82.1099 47.2461 82.1099C47.4557 82.1099 47.6377 81.9655 47.6853 81.7614L65.8542 3.88032C66.1709 2.5225 67.3814 1.56189 68.7757 1.56189H90.5945C92.5634 1.56189 93.9985 3.42638 93.4946 5.32968L64.8385 113.57C64.4901 114.885 63.2995 115.802 61.9384 115.802H32.5538C31.1926 115.802 30.002 114.885 29.6537 113.57L0.997509 5.32967C0.493618 3.42638 1.92873 1.56189 3.8976 1.56189H25.7164Z" fill="#3C3C3C"/>
<path d="M143.5 1.36328C169.181 1.36328 190 23.3868 190 50.5537C190 68.8385 175.827 84.1559 166.571 93.2695C157.315 102.383 144.185 117 144.185 117C144.185 117 128.315 100.267 120.815 93.2695C113.315 86.2716 97 70.0001 97 50.5537C97 23.3868 117.819 1.36328 143.5 1.36328ZM144 28C132.954 28 124 37.2922 124 48.7549C124 60.2177 132.954 69.5107 144 69.5107C155.046 69.5107 164 60.2177 164 48.7549C164 37.2922 155.046 28 144 28Z" fill="#11999E"/>
</g>
<defs>
<clipPath id="clip0_1_84">
<rect width="645.659" height="118" fill="white"/>
</clipPath>
</defs>
</svg>
