<svg width="647" height="118" viewBox="0 0 647 118" fill="none" xmlns="http://www.w3.org/2000/svg">
<g clip-path="url(#clip0_1_97)">
<path d="M573 116.24C571.343 116.24 570 114.897 570 113.24V5C570 3.34314 571.343 2 573 2H609.551C616.351 2 622.302 3.54328 627.402 6.62984C632.503 9.7164 636.47 14.1603 639.303 19.9615C642.137 25.7628 643.554 32.7168 643.554 40.8237C643.554 49.005 642.092 55.9032 639.169 61.5185C636.276 67.1339 632.204 71.3732 626.955 74.2367C621.735 77.1001 615.635 78.5318 608.656 78.5318H588.033C586.376 78.5318 585.033 77.1887 585.033 75.5318V57.4343C585.033 55.7775 586.376 54.4343 588.033 54.4343H603.645C606.568 54.4343 609.059 53.9881 611.117 53.0956C613.204 52.1659 614.8 50.697 615.904 48.6889C617.037 46.6807 617.604 44.059 617.604 40.8237C617.604 37.5512 617.037 34.8923 615.904 32.847C614.8 30.7645 613.204 29.2398 611.117 28.2729C609.059 27.2689 606.568 26.7668 603.645 26.7668H597.876C596.219 26.7668 594.876 28.11 594.876 29.7668V113.24C594.876 114.897 593.533 116.24 591.876 116.24H573ZM621.726 63.8056C622.918 63.8056 623.997 64.5118 624.475 65.6045L644.761 112.039C645.626 114.021 644.174 116.24 642.011 116.24H621.554C620.352 116.24 619.267 115.523 618.795 114.417L598.984 67.9828C598.14 66.0038 599.592 63.8056 601.744 63.8056H621.726Z" fill="#F4F4F4"/>
<path d="M487.689 115.802C486.032 115.802 484.689 114.459 484.689 112.802V4.56189C484.689 2.90503 486.032 1.56189 487.689 1.56189H547.726C549.383 1.56189 550.726 2.90504 550.726 4.56189V23.5519C550.726 25.2087 549.383 26.5519 547.726 26.5519H512.565C510.908 26.5519 509.565 27.895 509.565 29.5519V43.1868C509.565 44.8437 510.908 46.1868 512.565 46.1868H544.326C545.983 46.1868 547.326 47.53 547.326 49.1868V68.1768C547.326 69.8337 545.983 71.1768 544.326 71.1768H512.565C510.908 71.1768 509.565 72.52 509.565 74.1768V87.8118C509.565 89.4687 510.908 90.8118 512.565 90.8118H547.547C549.204 90.8118 550.547 92.155 550.547 93.8118V112.802C550.547 114.459 549.204 115.802 547.547 115.802H487.689Z" fill="#F4F4F4"/>
<path d="M442.339 39.27C440.906 39.27 439.701 38.2449 439.255 36.8826C438.923 35.8695 438.517 34.9361 438.038 34.0823C437.202 32.5576 436.158 31.2747 434.906 30.2334C433.683 29.155 432.251 28.3554 430.611 27.8348C429 27.277 427.225 26.9981 425.287 26.9981C421.111 26.9981 417.546 28.2439 414.594 30.7354C411.67 33.227 409.433 36.8156 407.882 41.5012C406.361 46.1868 405.601 51.8393 405.601 58.4587C405.601 65.1524 406.331 70.8793 407.793 75.6393C409.254 80.3993 411.432 84.0437 414.325 86.5724C417.218 89.1012 420.812 90.3656 425.108 90.3656C428.896 90.3656 432.042 89.6776 434.548 88.3017C437.083 86.9257 438.977 84.9734 440.23 82.4446C441.084 80.7197 441.597 79.0466 441.836 77.0714C442.036 75.4266 440.657 74.0774 439 74.0774L428.465 74.0774C426.809 74.0774 425.465 72.7343 425.465 71.0774V54.9881C425.465 53.3312 426.809 51.9881 428.465 51.9881H463.09C464.747 51.9881 466.09 53.3312 466.09 54.9881V67.8299C466.09 78.2424 464.315 87.1488 460.766 94.5491C457.246 101.912 452.384 107.565 446.18 111.507C440.006 115.411 432.922 117.364 424.929 117.364C416.01 117.364 408.181 115.002 401.44 110.279C394.699 105.557 389.434 98.8257 385.646 90.0866C381.888 81.3476 380.009 70.9537 380.009 58.905C380.009 49.4593 381.157 41.0922 383.454 33.8034C385.781 26.5147 389.002 20.3601 393.118 15.3398C397.234 10.2823 401.992 6.47062 407.39 3.90468C412.789 1.30156 418.575 0 424.75 0C430.178 0 435.219 0.966876 439.872 2.90063C444.555 4.79718 448.686 7.51187 452.265 11.0447C455.874 14.5403 458.782 18.6867 460.99 23.4839C462.774 27.3624 463.993 31.5447 464.647 36.031C464.9 37.7677 463.511 39.27 461.756 39.27H442.339Z" fill="#F4F4F4"/>
<path d="M304.756 113.508C304.43 114.854 303.225 115.802 301.84 115.802H281.254C279.285 115.802 277.85 113.937 278.353 112.034L307.01 3.7941C307.358 2.47828 308.549 1.56189 309.91 1.56189H339.294C340.655 1.56189 341.846 2.47828 342.194 3.7941L370.851 112.034C371.354 113.937 369.919 115.802 367.95 115.802H347.364C345.979 115.802 344.774 114.854 344.448 113.508L325.044 33.3704C324.995 33.1662 324.812 33.0225 324.602 33.0225C324.392 33.0225 324.209 33.1662 324.16 33.3704L304.756 113.508ZM299.189 73.7306C299.189 72.0737 300.533 70.7306 302.189 70.7306H346.657C348.314 70.7306 349.657 72.0737 349.657 73.7306V90.9355C349.657 92.5924 348.314 93.9356 346.657 93.9356H302.189C300.533 93.9356 299.189 92.5924 299.189 90.9356V73.7306Z" fill="#F4F4F4"/>
<path d="M191.451 5.74605C190.6 3.76616 192.052 1.56189 194.207 1.56189H215.334C216.574 1.56189 217.687 2.32522 218.133 3.48252L235.16 47.6379C235.237 47.8391 235.431 47.9718 235.647 47.9718C235.862 47.9718 236.056 47.8391 236.133 47.6379L253.16 3.48252C253.606 2.32522 254.719 1.56189 255.959 1.56189H277.086C279.241 1.56189 280.693 3.76615 279.842 5.74604L248.239 79.3117C248.078 79.6858 247.995 80.0887 247.995 80.4958V112.802C247.995 114.459 246.652 115.802 244.995 115.802H226.298C224.641 115.802 223.298 114.459 223.298 112.802V80.4958C223.298 80.0887 223.215 79.6858 223.055 79.3117L191.451 5.74605Z" fill="#F4F4F4"/>
<path d="M25.7164 1.56189C27.1107 1.56189 28.3212 2.5225 28.638 3.88032L46.8068 81.7614C46.8544 81.9655 47.0364 82.1099 47.2461 82.1099C47.4557 82.1099 47.6377 81.9655 47.6853 81.7614L65.8542 3.88032C66.1709 2.5225 67.3814 1.56189 68.7757 1.56189H90.5945C92.5634 1.56189 93.9985 3.42638 93.4946 5.32968L64.8385 113.57C64.4901 114.885 63.2995 115.802 61.9384 115.802H32.5538C31.1926 115.802 30.002 114.885 29.6537 113.57L0.997509 5.32967C0.493618 3.42638 1.92873 1.56189 3.8976 1.56189H25.7164Z" fill="#F4F4F4"/>
<path d="M143.5 1.36328C169.181 1.36328 190 23.3868 190 50.5537C190 68.8385 175.827 84.1559 166.571 93.2695C157.315 102.383 144.185 117 144.185 117C144.185 117 128.315 100.267 120.815 93.2695C113.315 86.2716 97 70.0001 97 50.5537C97 23.3868 117.819 1.36328 143.5 1.36328ZM144 28C132.954 28 124 37.2922 124 48.7549C124 60.2177 132.954 69.5107 144 69.5107C155.046 69.5107 164 60.2177 164 48.7549C164 37.2922 155.046 28 144 28Z" fill="#11999E"/>
</g>
<defs>
<clipPath id="clip0_1_97">
<rect width="646.596" height="118" fill="white"/>
</clipPath>
</defs>
</svg>
